<svg viewBox="0 0 180 240" fill="none" xmlns="http://www.w3.org/2000/svg">
  <!-- 蓮花花瓣 (左) -->
  <path d="M 70 85 Q 52 58, 58 28 Q 62 15, 68 18 Q 75 32, 80 55 Q 83 70, 82 85 Z"
        stroke="#16A34A"
        stroke-width="1.5"
        fill="rgba(22, 163, 74, 0.85)"
        stroke-linecap="round"
        stroke-linejoin="round" />

  <!-- 蓮花花瓣 (中) -->
  <path d="M 82 85 Q 85 45, 88 20 Q 89 8, 92 12 Q 95 35, 93 65 Q 92 78, 93 85 Z"
        stroke="#16A34A"
        stroke-width="1.5"
        fill="rgba(22, 163, 74, 0.9)"
        stroke-linecap="round"
        stroke-linejoin="round" />

  <!-- 蓮花花瓣 (右) -->
  <path d="M 93 85 Q 90 55, 92 35 Q 96 20, 102 25 Q 110 42, 115 60 Q 118 75, 108 85 Z"
        stroke="#16A34A"
        stroke-width="1.5"
        fill="rgba(22, 163, 74, 0.85)"
        stroke-linecap="round"
        stroke-linejoin="round" />

  <!-- 花瓣中心線 -->
  <path d="M 72 75 Q 74 52, 76 32"
        stroke="#16A34A"
        stroke-width="0.8"
        fill="none"
        opacity="0.4"
        stroke-linecap="round" />

  <path d="M 88 78 Q 89 53, 90 28"
        stroke="#16A34A"
        stroke-width="0.8"
        fill="none"
        opacity="0.4"
        stroke-linecap="round" />

  <path d="M 104 75 Q 102 52, 100 32"
        stroke="#16A34A"
        stroke-width="0.8"
        fill="none"
        opacity="0.4"
        stroke-linecap="round" />

  <!-- 莖 -->
  <path d="M 90 85 Q 88 125, 86 165 Q 85 185, 86 220"
        stroke="#16A34A"
        stroke-width="2.5"
        fill="none"
        stroke-linecap="round" />
</svg>
